<?xml version="1.0" encoding="UTF-8" standalone="no"?>
<!-- Created with Inkscape (http://www.inkscape.org/) -->

<svg
   xmlns:dc="http://purl.org/dc/elements/1.1/"
   xmlns:cc="http://creativecommons.org/ns#"
   xmlns:rdf="http://www.w3.org/1999/02/22-rdf-syntax-ns#"
   xmlns:svg="http://www.w3.org/2000/svg"
   xmlns="http://www.w3.org/2000/svg"
   version="1.1"
   viewBox="0 0 410.09999 324.89999"
   id="svg2"
   xml:space="preserve"><metadata
   id="metadata20"><rdf:RDF><cc:Work
       rdf:about=""><dc:format>image/svg+xml</dc:format><dc:type
         rdf:resource="http://purl.org/dc/dcmitype/StillImage" /><dc:title></dc:title></cc:Work></rdf:RDF></metadata><defs
   id="defs18" />
<g
   transform="translate(-215.90002,-135.2)"
   id="Layer_2">
</g>
<g
   transform="translate(-215.90002,-135.2)"
   id="Layer_1">
	<g
   id="g6">
		<path
   d="m 435.6,384.8 c -19.5,16.1 -44.5,25.8 -71.8,25.8 -62.3,0 -113,-50.7 -113,-113 0,-62.3 50.7,-113 113,-113 27.2,0 52.3,9.7 71.8,25.8 7.5,-2 15.3,-3.1 23.5,-3.1 8.5,0 16.7,1.2 24.4,3.4 C 472.2,195.2 458,182 441.7,171.9 L 452,150 420.3,135.2 410.1,157.1 c -14.6,-4.8 -30.1,-7.4 -46.2,-7.4 -81.6,0 -148,66.4 -148,148 0,53 28,99.6 70,125.7 l -10.2,21.9 31.7,14.8 10.2,-21.8 c 14.6,4.8 30.1,7.4 46.2,7.4 49.1,0 92.8,-24.1 119.7,-61.1 -7.8,2.2 -16,3.4 -24.4,3.4 -8.1,-0.1 -16,-1.2 -23.5,-3.2 z"
   id="path8"
   style="fill:#ffdd00" />
		<path
   d="m 375.9,259 c 4.5,-9.8 10.7,-18.7 18.2,-26.3 h -92.6 v 129 H 394 c -7.5,-7.6 -13.6,-16.5 -18.1,-26.3 h -48.1 v -25 h 40.7 c -0.6,-4.3 -0.9,-8.7 -0.9,-13.1 0,-4.5 0.3,-8.9 1,-13.2 h -40.8 v -25 c 0,-0.1 31.6,-0.1 48.1,-0.1 z"
   id="path10"
   style="fill:#ffdd00" />
		<path
   d="m 449,309.8 h 31.6 v 24 c -6.3,3.7 -13.5,5.6 -21,5.6 -23.3,0 -42.2,-18.9 -42.2,-42.2 0,-23.3 18.9,-42.2 42.2,-42.2 9.5,0 18.5,3.1 26,9 l 16.3,-20.7 c -12.2,-9.5 -26.8,-14.6 -42.3,-14.6 -37.8,0 -68.6,30.8 -68.6,68.6 0,37.8 30.8,68.6 68.6,68.6 15.5,0 30.1,-5 42.3,-14.6 l 5,-4 V 283.6 H 449 v 26.2 z"
   id="path12"
   style="fill:#ffdd00" />
		<path
   d="M 599.7,232.6 V 317 c 0,12.3 -10,22.4 -22.4,22.4 -12.3,0 -22.4,-10 -22.4,-22.4 V 232.6 H 528.6 V 317 c 0,26.9 21.9,48.7 48.7,48.7 26.9,0 48.7,-21.9 48.7,-48.7 v -84.4 h -26.3 z"
   id="path14"
   style="fill:#ffdd00" />
	</g>
</g>
</svg>